<mxfile host="app.diagrams.net" agent="Mozilla/5.0 (Macintosh; Intel Mac OS X 10_15_7) AppleWebKit/537.36 (KHTML, like Gecko) Chrome/134.0.0.0 Safari/537.36" version="26.1.1" pages="5">
  <diagram name="第 1 页" id="bT6D-S7WPMwnbzW_7wHR">
    <mxGraphModel dx="1434" dy="676" grid="0" gridSize="10" guides="1" tooltips="1" connect="1" arrows="1" fold="1" page="1" pageScale="1" pageWidth="827" pageHeight="1169" math="0" shadow="0">
      <root>
        <mxCell id="0" />
        <mxCell id="1" parent="0" />
        <mxCell id="cUkAY2_Fs2y_gggUI6-y-6" style="edgeStyle=orthogonalEdgeStyle;rounded=0;orthogonalLoop=1;jettySize=auto;html=1;exitX=0.5;exitY=1;exitDx=0;exitDy=0;" edge="1" parent="1" source="cUkAY2_Fs2y_gggUI6-y-1" target="cUkAY2_Fs2y_gggUI6-y-4">
          <mxGeometry relative="1" as="geometry" />
        </mxCell>
        <mxCell id="cUkAY2_Fs2y_gggUI6-y-1" value="父类描述" style="rounded=1;whiteSpace=wrap;html=1;" vertex="1" parent="1">
          <mxGeometry x="353" y="203" width="120" height="60" as="geometry" />
        </mxCell>
        <mxCell id="cUkAY2_Fs2y_gggUI6-y-5" style="edgeStyle=orthogonalEdgeStyle;rounded=0;orthogonalLoop=1;jettySize=auto;html=1;exitX=0.5;exitY=1;exitDx=0;exitDy=0;" edge="1" parent="1" source="cUkAY2_Fs2y_gggUI6-y-2" target="cUkAY2_Fs2y_gggUI6-y-3">
          <mxGeometry relative="1" as="geometry" />
        </mxCell>
        <mxCell id="3gxtErlpsSo92KkUC764-2" style="edgeStyle=orthogonalEdgeStyle;rounded=0;orthogonalLoop=1;jettySize=auto;html=1;exitX=1;exitY=0.5;exitDx=0;exitDy=0;" edge="1" parent="1" source="cUkAY2_Fs2y_gggUI6-y-2" target="cUkAY2_Fs2y_gggUI6-y-1">
          <mxGeometry relative="1" as="geometry" />
        </mxCell>
        <mxCell id="cUkAY2_Fs2y_gggUI6-y-2" value="子类矩阵描述" style="rounded=1;whiteSpace=wrap;html=1;" vertex="1" parent="1">
          <mxGeometry x="138" y="203" width="120" height="60" as="geometry" />
        </mxCell>
        <mxCell id="cUkAY2_Fs2y_gggUI6-y-8" style="edgeStyle=orthogonalEdgeStyle;rounded=0;orthogonalLoop=1;jettySize=auto;html=1;exitX=0.5;exitY=1;exitDx=0;exitDy=0;" edge="1" parent="1" source="cUkAY2_Fs2y_gggUI6-y-3" target="cUkAY2_Fs2y_gggUI6-y-7">
          <mxGeometry relative="1" as="geometry" />
        </mxCell>
        <mxCell id="cUkAY2_Fs2y_gggUI6-y-3" value="子类差距矩阵" style="rounded=1;whiteSpace=wrap;html=1;" vertex="1" parent="1">
          <mxGeometry x="138" y="318" width="120" height="60" as="geometry" />
        </mxCell>
        <mxCell id="cUkAY2_Fs2y_gggUI6-y-10" style="edgeStyle=orthogonalEdgeStyle;rounded=0;orthogonalLoop=1;jettySize=auto;html=1;exitX=0.5;exitY=1;exitDx=0;exitDy=0;" edge="1" parent="1" source="cUkAY2_Fs2y_gggUI6-y-4" target="cUkAY2_Fs2y_gggUI6-y-7">
          <mxGeometry relative="1" as="geometry" />
        </mxCell>
        <mxCell id="cUkAY2_Fs2y_gggUI6-y-4" value="父类矩阵" style="rounded=1;whiteSpace=wrap;html=1;" vertex="1" parent="1">
          <mxGeometry x="353" y="318" width="120" height="60" as="geometry" />
        </mxCell>
        <mxCell id="3gxtErlpsSo92KkUC764-15" style="edgeStyle=orthogonalEdgeStyle;rounded=0;orthogonalLoop=1;jettySize=auto;html=1;exitX=0.5;exitY=1;exitDx=0;exitDy=0;" edge="1" parent="1" source="cUkAY2_Fs2y_gggUI6-y-7" target="3gxtErlpsSo92KkUC764-14">
          <mxGeometry relative="1" as="geometry" />
        </mxCell>
        <mxCell id="cUkAY2_Fs2y_gggUI6-y-7" value="子类矩阵" style="rounded=1;whiteSpace=wrap;html=1;" vertex="1" parent="1">
          <mxGeometry x="250" y="461" width="120" height="60" as="geometry" />
        </mxCell>
        <mxCell id="cUkAY2_Fs2y_gggUI6-y-11" value="矩阵相乘" style="text;html=1;align=center;verticalAlign=middle;whiteSpace=wrap;rounded=0;" vertex="1" parent="1">
          <mxGeometry x="284" y="396" width="60" height="30" as="geometry" />
        </mxCell>
        <mxCell id="3gxtErlpsSo92KkUC764-1" value="查找父类描述" style="text;html=1;align=center;verticalAlign=middle;whiteSpace=wrap;rounded=0;" vertex="1" parent="1">
          <mxGeometry x="271" y="198" width="60" height="30" as="geometry" />
        </mxCell>
        <mxCell id="3gxtErlpsSo92KkUC764-4" style="edgeStyle=orthogonalEdgeStyle;rounded=0;orthogonalLoop=1;jettySize=auto;html=1;exitX=0.5;exitY=1;exitDx=0;exitDy=0;entryX=0.5;entryY=0;entryDx=0;entryDy=0;" edge="1" parent="1" source="3gxtErlpsSo92KkUC764-3" target="cUkAY2_Fs2y_gggUI6-y-1">
          <mxGeometry relative="1" as="geometry" />
        </mxCell>
        <mxCell id="3gxtErlpsSo92KkUC764-3" value="预解析描述" style="rounded=1;whiteSpace=wrap;html=1;" vertex="1" parent="1">
          <mxGeometry x="353" y="80" width="120" height="60" as="geometry" />
        </mxCell>
        <mxCell id="3gxtErlpsSo92KkUC764-6" style="edgeStyle=orthogonalEdgeStyle;rounded=0;orthogonalLoop=1;jettySize=auto;html=1;exitX=0.5;exitY=1;exitDx=0;exitDy=0;" edge="1" parent="1" source="3gxtErlpsSo92KkUC764-5" target="cUkAY2_Fs2y_gggUI6-y-2">
          <mxGeometry relative="1" as="geometry" />
        </mxCell>
        <mxCell id="3gxtErlpsSo92KkUC764-5" value="层级解析描述" style="rounded=1;whiteSpace=wrap;html=1;" vertex="1" parent="1">
          <mxGeometry x="138" y="80" width="120" height="60" as="geometry" />
        </mxCell>
        <mxCell id="3gxtErlpsSo92KkUC764-7" value="解析节点" style="text;html=1;align=center;verticalAlign=middle;whiteSpace=wrap;rounded=0;" vertex="1" parent="1">
          <mxGeometry x="142" y="157" width="60" height="30" as="geometry" />
        </mxCell>
        <mxCell id="3gxtErlpsSo92KkUC764-8" value="计算矩阵" style="text;html=1;align=center;verticalAlign=middle;whiteSpace=wrap;rounded=0;" vertex="1" parent="1">
          <mxGeometry x="138" y="271" width="60" height="30" as="geometry" />
        </mxCell>
        <mxCell id="3gxtErlpsSo92KkUC764-9" value="计算矩阵" style="text;html=1;align=center;verticalAlign=middle;whiteSpace=wrap;rounded=0;" vertex="1" parent="1">
          <mxGeometry x="413" y="276" width="60" height="30" as="geometry" />
        </mxCell>
        <mxCell id="3gxtErlpsSo92KkUC764-10" value="预处理解析" style="text;html=1;align=center;verticalAlign=middle;whiteSpace=wrap;rounded=0;" vertex="1" parent="1">
          <mxGeometry x="413" y="157" width="60" height="30" as="geometry" />
        </mxCell>
        <mxCell id="3gxtErlpsSo92KkUC764-16" style="edgeStyle=orthogonalEdgeStyle;rounded=0;orthogonalLoop=1;jettySize=auto;html=1;exitX=0.5;exitY=1;exitDx=0;exitDy=0;" edge="1" parent="1" source="3gxtErlpsSo92KkUC764-11" target="3gxtErlpsSo92KkUC764-14">
          <mxGeometry relative="1" as="geometry" />
        </mxCell>
        <mxCell id="3gxtErlpsSo92KkUC764-11" value="世界矩阵" style="rounded=1;whiteSpace=wrap;html=1;" vertex="1" parent="1">
          <mxGeometry x="505" y="461" width="120" height="60" as="geometry" />
        </mxCell>
        <mxCell id="3gxtErlpsSo92KkUC764-14" value="触发渲染" style="rounded=1;whiteSpace=wrap;html=1;" vertex="1" parent="1">
          <mxGeometry x="370" y="585" width="120" height="60" as="geometry" />
        </mxCell>
        <mxCell id="3gxtErlpsSo92KkUC764-17" value="矩阵相乘" style="text;html=1;align=center;verticalAlign=middle;whiteSpace=wrap;rounded=0;" vertex="1" parent="1">
          <mxGeometry x="400" y="521" width="60" height="30" as="geometry" />
        </mxCell>
      </root>
    </mxGraphModel>
  </diagram>
  <diagram id="8HfvVD18ghbMaMQJKvwe" name="第 2 页">
    <mxGraphModel grid="0" page="1" gridSize="10" guides="1" tooltips="1" connect="1" arrows="1" fold="1" pageScale="1" pageWidth="827" pageHeight="1169" math="0" shadow="0">
      <root>
        <mxCell id="0" />
        <mxCell id="1" parent="0" />
      </root>
    </mxGraphModel>
  </diagram>
  <diagram id="PwTU98h47WPHV3FNjkfb" name="第 3 页">
    <mxGraphModel dx="1434" dy="676" grid="0" gridSize="10" guides="1" tooltips="1" connect="1" arrows="1" fold="1" page="1" pageScale="1" pageWidth="827" pageHeight="1169" math="0" shadow="0">
      <root>
        <mxCell id="0" />
        <mxCell id="1" parent="0" />
        <mxCell id="MRcnLcJLwHHA92HqjRxi-8" style="edgeStyle=orthogonalEdgeStyle;rounded=0;orthogonalLoop=1;jettySize=auto;html=1;exitX=0.5;exitY=1;exitDx=0;exitDy=0;" edge="1" parent="1" source="MRcnLcJLwHHA92HqjRxi-2" target="MRcnLcJLwHHA92HqjRxi-6">
          <mxGeometry relative="1" as="geometry" />
        </mxCell>
        <mxCell id="MRcnLcJLwHHA92HqjRxi-2" value="未来7天内是否送礼" style="rounded=1;whiteSpace=wrap;html=1;" vertex="1" parent="1">
          <mxGeometry x="145" y="437" width="120" height="60" as="geometry" />
        </mxCell>
        <mxCell id="MRcnLcJLwHHA92HqjRxi-10" style="edgeStyle=orthogonalEdgeStyle;rounded=0;orthogonalLoop=1;jettySize=auto;html=1;exitX=0.5;exitY=1;exitDx=0;exitDy=0;" edge="1" parent="1" source="MRcnLcJLwHHA92HqjRxi-3">
          <mxGeometry relative="1" as="geometry">
            <mxPoint x="416" y="599" as="targetPoint" />
          </mxGeometry>
        </mxCell>
        <mxCell id="MRcnLcJLwHHA92HqjRxi-3" value="账户内金额&lt;div&gt;（是否大于大礼物模型金额）&lt;/div&gt;" style="rounded=1;whiteSpace=wrap;html=1;" vertex="1" parent="1">
          <mxGeometry x="356" y="437" width="120" height="60" as="geometry" />
        </mxCell>
        <mxCell id="MRcnLcJLwHHA92HqjRxi-5" value="推理" style="text;html=1;align=center;verticalAlign=middle;whiteSpace=wrap;rounded=0;" vertex="1" parent="1">
          <mxGeometry x="142" y="394" width="60" height="30" as="geometry" />
        </mxCell>
        <mxCell id="MRcnLcJLwHHA92HqjRxi-6" value="是否需要预下载大礼物资源" style="rounded=1;whiteSpace=wrap;html=1;" vertex="1" parent="1">
          <mxGeometry x="356" y="598" width="120" height="60" as="geometry" />
        </mxCell>
        <mxCell id="MRcnLcJLwHHA92HqjRxi-9" style="edgeStyle=orthogonalEdgeStyle;rounded=0;orthogonalLoop=1;jettySize=auto;html=1;exitX=0.5;exitY=1;exitDx=0;exitDy=0;" edge="1" parent="1" source="MRcnLcJLwHHA92HqjRxi-7" target="MRcnLcJLwHHA92HqjRxi-6">
          <mxGeometry relative="1" as="geometry" />
        </mxCell>
        <mxCell id="MRcnLcJLwHHA92HqjRxi-7" value="服务器配置" style="rounded=1;whiteSpace=wrap;html=1;" vertex="1" parent="1">
          <mxGeometry x="567" y="437" width="120" height="60" as="geometry" />
        </mxCell>
        <mxCell id="GAqEpvZCVuuKhb_p_H0D-1" style="edgeStyle=orthogonalEdgeStyle;rounded=0;orthogonalLoop=1;jettySize=auto;html=1;exitX=1;exitY=0.5;exitDx=0;exitDy=0;" edge="1" parent="1" source="GAqEpvZCVuuKhb_p_H0D-2" target="GAqEpvZCVuuKhb_p_H0D-4">
          <mxGeometry relative="1" as="geometry" />
        </mxCell>
        <mxCell id="GAqEpvZCVuuKhb_p_H0D-2" value="一年内送礼参数&lt;div&gt;（用户等级&lt;span style=&quot;background-color: transparent; color: light-dark(rgb(0, 0, 0), rgb(255, 255, 255));&quot;&gt;，&lt;/span&gt;&lt;/div&gt;&lt;div&gt;&lt;span style=&quot;background-color: transparent; color: light-dark(rgb(0, 0, 0), rgb(255, 255, 255));&quot;&gt;用户类型，&lt;/span&gt;&lt;/div&gt;&lt;div&gt;用户年龄，&lt;/div&gt;&lt;div&gt;用户使用时长&lt;/div&gt;&lt;div&gt;用户送礼总价值，&lt;/div&gt;&lt;div&gt;送礼记录，&lt;/div&gt;&lt;div&gt;送礼金额，&lt;/div&gt;&lt;div&gt;送礼次数，&lt;br&gt;最近送礼时间到现在差距值等）&lt;/div&gt;" style="rounded=1;whiteSpace=wrap;html=1;" vertex="1" parent="1">
          <mxGeometry x="142" y="51" width="120" height="184" as="geometry" />
        </mxCell>
        <mxCell id="GAqEpvZCVuuKhb_p_H0D-3" style="edgeStyle=orthogonalEdgeStyle;rounded=0;orthogonalLoop=1;jettySize=auto;html=1;exitX=1;exitY=0.5;exitDx=0;exitDy=0;" edge="1" parent="1" source="GAqEpvZCVuuKhb_p_H0D-4" target="GAqEpvZCVuuKhb_p_H0D-6">
          <mxGeometry relative="1" as="geometry" />
        </mxCell>
        <mxCell id="GAqEpvZCVuuKhb_p_H0D-4" value="服务器" style="rounded=1;whiteSpace=wrap;html=1;" vertex="1" parent="1">
          <mxGeometry x="354" y="95.5" width="120" height="94" as="geometry" />
        </mxCell>
        <mxCell id="GAqEpvZCVuuKhb_p_H0D-5" value="收集数据" style="text;html=1;align=center;verticalAlign=middle;whiteSpace=wrap;rounded=0;" vertex="1" parent="1">
          <mxGeometry x="278" y="115" width="60" height="30" as="geometry" />
        </mxCell>
        <mxCell id="GAqEpvZCVuuKhb_p_H0D-11" style="edgeStyle=orthogonalEdgeStyle;rounded=0;orthogonalLoop=1;jettySize=auto;html=1;exitX=0.5;exitY=1;exitDx=0;exitDy=0;" edge="1" parent="1" source="GAqEpvZCVuuKhb_p_H0D-6" target="GAqEpvZCVuuKhb_p_H0D-10">
          <mxGeometry relative="1" as="geometry" />
        </mxCell>
        <mxCell id="GAqEpvZCVuuKhb_p_H0D-6" value="模型&lt;div&gt;（&lt;span style=&quot;background-color: transparent; color: light-dark(rgb(0, 0, 0), rgb(255, 255, 255));&quot;&gt;推断短期是否会送礼）&lt;/span&gt;&lt;/div&gt;" style="rounded=1;whiteSpace=wrap;html=1;" vertex="1" parent="1">
          <mxGeometry x="584" y="95.5" width="120" height="95" as="geometry" />
        </mxCell>
        <mxCell id="GAqEpvZCVuuKhb_p_H0D-7" value="训练分类模型" style="text;html=1;align=center;verticalAlign=middle;whiteSpace=wrap;rounded=0;" vertex="1" parent="1">
          <mxGeometry x="494" y="159.5" width="60" height="30" as="geometry" />
        </mxCell>
        <mxCell id="GAqEpvZCVuuKhb_p_H0D-8" style="edgeStyle=orthogonalEdgeStyle;rounded=0;orthogonalLoop=1;jettySize=auto;html=1;exitX=0.5;exitY=1;exitDx=0;exitDy=0;" edge="1" parent="1" source="GAqEpvZCVuuKhb_p_H0D-4" target="GAqEpvZCVuuKhb_p_H0D-4">
          <mxGeometry relative="1" as="geometry" />
        </mxCell>
        <mxCell id="GAqEpvZCVuuKhb_p_H0D-9" style="edgeStyle=orthogonalEdgeStyle;rounded=0;orthogonalLoop=1;jettySize=auto;html=1;exitX=0.5;exitY=1;exitDx=0;exitDy=0;" edge="1" parent="1" source="GAqEpvZCVuuKhb_p_H0D-4" target="GAqEpvZCVuuKhb_p_H0D-4">
          <mxGeometry relative="1" as="geometry" />
        </mxCell>
        <mxCell id="GAqEpvZCVuuKhb_p_H0D-16" style="edgeStyle=orthogonalEdgeStyle;rounded=0;orthogonalLoop=1;jettySize=auto;html=1;exitX=0;exitY=0.5;exitDx=0;exitDy=0;" edge="1" parent="1" source="GAqEpvZCVuuKhb_p_H0D-10" target="MRcnLcJLwHHA92HqjRxi-2">
          <mxGeometry relative="1" as="geometry" />
        </mxCell>
        <mxCell id="GAqEpvZCVuuKhb_p_H0D-10" value="客户端" style="rounded=1;whiteSpace=wrap;html=1;" vertex="1" parent="1">
          <mxGeometry x="584" y="274" width="120" height="60" as="geometry" />
        </mxCell>
        <mxCell id="GAqEpvZCVuuKhb_p_H0D-12" value="服务器下发到客户端" style="text;html=1;align=center;verticalAlign=middle;whiteSpace=wrap;rounded=0;" vertex="1" parent="1">
          <mxGeometry x="652" y="217" width="90" height="30" as="geometry" />
        </mxCell>
        <mxCell id="GAqEpvZCVuuKhb_p_H0D-17" value="使用当前用户的数据进行推理" style="text;html=1;align=center;verticalAlign=middle;whiteSpace=wrap;rounded=0;" vertex="1" parent="1">
          <mxGeometry x="354" y="267" width="117" height="30" as="geometry" />
        </mxCell>
      </root>
    </mxGraphModel>
  </diagram>
  <diagram id="QieTCdXmzZS5H70roHW9" name="第 4 页">
    <mxGraphModel dx="1434" dy="676" grid="0" gridSize="10" guides="1" tooltips="1" connect="1" arrows="1" fold="1" page="1" pageScale="1" pageWidth="827" pageHeight="1169" math="0" shadow="0">
      <root>
        <mxCell id="0" />
        <mxCell id="1" parent="0" />
        <mxCell id="Lvpage5tgWIVjwnftTJD-12" style="edgeStyle=orthogonalEdgeStyle;rounded=0;orthogonalLoop=1;jettySize=auto;html=1;exitX=1;exitY=0.5;exitDx=0;exitDy=0;" edge="1" parent="1" source="Lvpage5tgWIVjwnftTJD-2" target="Lvpage5tgWIVjwnftTJD-11">
          <mxGeometry relative="1" as="geometry" />
        </mxCell>
        <mxCell id="Lvpage5tgWIVjwnftTJD-2" value="一年内送礼参数&lt;div&gt;（用户等级&lt;span style=&quot;background-color: transparent; color: light-dark(rgb(0, 0, 0), rgb(255, 255, 255));&quot;&gt;，&lt;/span&gt;&lt;/div&gt;&lt;div&gt;&lt;span style=&quot;background-color: transparent; color: light-dark(rgb(0, 0, 0), rgb(255, 255, 255));&quot;&gt;用户类型，&lt;/span&gt;&lt;/div&gt;&lt;div&gt;用户年龄，&lt;/div&gt;&lt;div&gt;用户使用时长&lt;/div&gt;&lt;div&gt;用户送礼总价值，&lt;/div&gt;&lt;div&gt;送礼记录，&lt;/div&gt;&lt;div&gt;送礼金额，&lt;/div&gt;&lt;div&gt;送礼次数，&lt;br&gt;最近送礼时间到现在差距值等）&lt;/div&gt;" style="rounded=1;whiteSpace=wrap;html=1;" vertex="1" parent="1">
          <mxGeometry x="224" y="451" width="120" height="184" as="geometry" />
        </mxCell>
        <mxCell id="Lvpage5tgWIVjwnftTJD-11" value="7天内是否送礼" style="rounded=1;whiteSpace=wrap;html=1;" vertex="1" parent="1">
          <mxGeometry x="484" y="451" width="120" height="184" as="geometry" />
        </mxCell>
        <mxCell id="Lvpage5tgWIVjwnftTJD-13" value="推理参数" style="text;html=1;align=center;verticalAlign=middle;whiteSpace=wrap;rounded=0;" vertex="1" parent="1">
          <mxGeometry x="249" y="652" width="60" height="30" as="geometry" />
        </mxCell>
        <mxCell id="3YQ-11q2dWb9r_kVk-5w-1" value="模型逻辑" style="text;html=1;align=center;verticalAlign=middle;whiteSpace=wrap;rounded=0;" vertex="1" parent="1">
          <mxGeometry x="367" y="697" width="100" height="49" as="geometry" />
        </mxCell>
        <mxCell id="3YQ-11q2dWb9r_kVk-5w-2" value="推理结果" style="text;html=1;align=center;verticalAlign=middle;whiteSpace=wrap;rounded=0;" vertex="1" parent="1">
          <mxGeometry x="511" y="652" width="60" height="30" as="geometry" />
        </mxCell>
        <mxCell id="3YQ-11q2dWb9r_kVk-5w-6" style="edgeStyle=orthogonalEdgeStyle;rounded=0;orthogonalLoop=1;jettySize=auto;html=1;exitX=0.5;exitY=1;exitDx=0;exitDy=0;entryX=0;entryY=0.5;entryDx=0;entryDy=0;" edge="1" parent="1" source="3YQ-11q2dWb9r_kVk-5w-3" target="Lvpage5tgWIVjwnftTJD-2">
          <mxGeometry relative="1" as="geometry">
            <Array as="points">
              <mxPoint x="417" y="398" />
              <mxPoint x="171" y="398" />
              <mxPoint x="171" y="543" />
            </Array>
          </mxGeometry>
        </mxCell>
        <mxCell id="3YQ-11q2dWb9r_kVk-5w-7" style="edgeStyle=orthogonalEdgeStyle;rounded=0;orthogonalLoop=1;jettySize=auto;html=1;exitX=0.5;exitY=1;exitDx=0;exitDy=0;entryX=1;entryY=0.5;entryDx=0;entryDy=0;" edge="1" parent="1" source="3YQ-11q2dWb9r_kVk-5w-3" target="Lvpage5tgWIVjwnftTJD-11">
          <mxGeometry relative="1" as="geometry">
            <Array as="points">
              <mxPoint x="417" y="398" />
              <mxPoint x="678" y="398" />
              <mxPoint x="678" y="543" />
            </Array>
          </mxGeometry>
        </mxCell>
        <mxCell id="3YQ-11q2dWb9r_kVk-5w-3" value="服务器" style="rounded=1;whiteSpace=wrap;html=1;" vertex="1" parent="1">
          <mxGeometry x="357" y="280" width="120" height="65" as="geometry" />
        </mxCell>
        <mxCell id="3YQ-11q2dWb9r_kVk-5w-5" value="Text" style="text;html=1;align=center;verticalAlign=middle;whiteSpace=wrap;rounded=0;" vertex="1" parent="1">
          <mxGeometry x="387" y="511" width="60" height="30" as="geometry" />
        </mxCell>
        <mxCell id="3YQ-11q2dWb9r_kVk-5w-8" value="预处理" style="text;html=1;align=center;verticalAlign=middle;whiteSpace=wrap;rounded=0;" vertex="1" parent="1">
          <mxGeometry x="390" y="407" width="60" height="30" as="geometry" />
        </mxCell>
      </root>
    </mxGraphModel>
  </diagram>
  <diagram id="jHMpch5V4Zgkz2NMJEYg" name="第 5 页">
    <mxGraphModel grid="0" page="1" gridSize="10" guides="1" tooltips="1" connect="1" arrows="1" fold="1" pageScale="1" pageWidth="827" pageHeight="1169" math="0" shadow="0">
      <root>
        <mxCell id="0" />
        <mxCell id="1" parent="0" />
      </root>
    </mxGraphModel>
  </diagram>
</mxfile>
